<svg xmlns="http://www.w3.org/2000/svg" viewBox="0 0 400 400">
  <rect width="400" height="400" fill="#1a0f0a"/>
  <g fill="#c41e3a">
    <rect x="50" y="50" width="300" height="20"/>
    <rect x="50" y="90" width="300" height="20"/>
    <rect x="50" y="130" width="300" height="20"/>
    <rect x="50" y="170" width="300" height="20"/>
    <rect x="50" y="210" width="300" height="20"/>
    <rect x="50" y="250" width="300" height="20"/>
    <rect x="50" y="290" width="300" height="20"/>
    <rect x="50" y="330" width="300" height="20"/>
  </g>
  <g fill="#ffd700">
    <polygon points="200,60 220,80 200,100 180,80"/>
    <polygon points="200,100 220,120 200,140 180,120"/>
    <polygon points="200,140 220,160 200,180 180,160"/>
    <polygon points="200,180 220,200 200,220 180,200"/>
    <polygon points="200,220 220,240 200,260 180,240"/>
    <polygon points="200,260 220,280 200,300 180,280"/>
    <polygon points="200,300 220,320 200,340 180,320"/>
    <polygon points="200,340 220,360 200,380 180,360"/>
  </g>
  <text x="200" y="390" text-anchor="middle" fill="#ffd700" font-family="serif" font-size="16">Karen (Kayah) Traditional Weaving</text>
</svg>